<mxfile host="app.diagrams.net" modified="2024-06-24T21:33:22.906Z" agent="Mozilla/5.0 (X11; Linux x86_64; rv:109.0) Gecko/20100101 Firefox/115.0" version="24.6.2" etag="Farh8B98NTYUWjvTtF4Z" type="github">
  <diagram name="Page-1" id="SuY9HUNZaAzSDMftqmBQ">
    <mxGraphModel>
      <root>
        <mxCell id="0" />
        <mxCell id="1" parent="0" />
      </root>
    </mxGraphModel>
  </diagram>
</mxfile>
